<?xml version="1.0" encoding="iso-8859-1"?>
<!-- Uploaded to: SVG Repo, www.svgrepo.com, Generator: SVG Repo Mixer Tools -->
<!DOCTYPE svg PUBLIC "-//W3C//DTD SVG 1.1//EN" "http://www.w3.org/Graphics/SVG/1.1/DTD/svg11.dtd">
<svg fill="#000000" version="1.1" id="Capa_1" xmlns="http://www.w3.org/2000/svg" xmlns:xlink="http://www.w3.org/1999/xlink" 
	 width="800px" height="800px" viewBox="0 0 464.25 464.25"
	 xml:space="preserve">
<g>
	<g>
		<path d="M354.281,0H109.979C49.343,0,0.01,49.333,0.01,109.969v244.312c0,60.636,49.333,109.969,109.969,109.969h244.303
			c43.796,0,81.578-25.79,99.249-62.931l1.167-1.157h-0.612c6.455-13.99,10.155-29.491,10.155-45.881V109.969
			C464.25,49.342,414.917,0,354.281,0z M421.314,400.162h-20.263V362.82h34.062C433.659,376.571,428.764,389.309,421.314,400.162z
			 M28.697,109.969c0-10.06,1.922-19.661,5.278-28.554h29.233v37.332H28.697V109.969z M79.952,34.511h30.16v37.342H72.78V37.791
			C75.104,36.586,77.495,35.486,79.952,34.511z M435.562,165.651h-34.511v-37.332h34.511V165.651z M435.562,259.44h-34.511v-37.333
			h34.511V259.44z M435.562,306.354h-34.511v-37.342h34.511V306.354z M29.156,362.82h34.052v37.342H42.945
			C35.496,389.309,30.6,376.571,29.156,362.82z M391.489,259.44h-37.332v-37.333h37.332V259.44z M28.697,269.003h34.511v37.351
			H28.697V269.003z M28.697,222.108h34.511v37.333H28.697V222.108z M391.489,212.545h-37.332v-37.332h37.332V212.545z
			 M344.585,259.44h-37.332v-37.333h37.332V259.44z M72.78,269.003h37.332v37.351H72.78V269.003z M72.78,222.108h37.332v37.333
			H72.78V222.108z M297.69,259.44h-37.332v-37.333h37.332V259.44z M250.796,212.545h-37.322v-37.332h37.322V212.545z
			 M203.911,222.108v37.333h-37.342v-37.333H203.911z M157.007,259.44h-37.332v-37.333h37.332V259.44z M119.675,306.354v-37.342
			h37.332v37.342H119.675z M344.585,306.354h-37.332v-37.342h37.332V306.354z M307.253,212.545v-37.332h37.332v37.332H307.253z
			 M297.69,165.651h-37.332v-37.332h37.332V165.651z M250.796,165.651h-37.322v-37.332h37.322V165.651z M203.911,165.651h-37.342
			v-37.332h37.332v37.332H203.911z M157.007,175.213v37.332h-37.332v-37.332H157.007z M110.112,212.545H72.78v-37.332h37.332
			V212.545z M72.78,353.258v-37.342h37.332v37.342H72.78L72.78,353.258z M213.474,269.003h37.322v37.351h-37.322V269.003z
			 M354.147,353.258v-37.342h37.332v37.342H354.147L354.147,353.258z M391.489,306.354h-37.332v-37.342h37.332V306.354z
			 M391.489,165.651h-37.332v-37.332h37.332V165.651z M344.585,81.415v37.332h-37.332V81.415H344.585z M297.69,118.747h-37.332
			V81.415h37.332V118.747z M250.796,118.747h-37.322V81.415h37.322V118.747z M203.911,81.415v37.332h-37.342V81.415H203.911z
			 M157.007,118.747h-37.332V81.415h37.332V118.747z M110.112,128.31v37.332H72.78V128.31H110.112z M63.218,165.651H28.697v-37.332
			h34.511v37.332H63.218z M166.569,315.916h37.332v37.342h-37.332V315.916z M213.474,315.916h37.322v37.342h-37.322V315.916z
			 M260.358,315.916h37.332v37.342h-37.332V315.916z M307.253,362.82h37.332v37.342h-37.332V362.82z M297.69,71.853h-37.332V34.511
			h37.332V71.853z M250.796,71.853h-37.322V34.511h37.322V71.853z M157.007,71.853h-37.332V34.511h37.332V71.853z M119.675,362.82
			h37.332v37.342h-37.332V362.82z M166.569,400.162V362.82h37.332v37.342H166.569z M213.474,362.82h37.322v37.342h-37.322V362.82z
			 M260.358,362.82h37.332v37.342h-37.332V362.82z M435.562,109.969v8.778h-34.511V81.415h29.232
			C433.641,90.318,435.562,99.918,435.562,109.969z M391.489,71.853h-37.332V34.511h30.16c2.447,0.976,4.848,2.075,7.172,3.28
			V71.853z M109.979,435.562c-13.407,0-26.039-3.328-37.208-9.095v-16.743h37.332v25.838H109.979z M119.675,409.725h37.332v25.838
			h-37.332V409.725z M213.474,435.562v-25.838h37.322v25.838H213.474z M260.358,409.725h37.332v25.838h-37.332V409.725z
			 M354.147,409.725h37.332v16.743c-11.159,5.776-23.792,9.095-37.208,9.095h-0.134v-25.838H354.147z"/>
	</g>
</g>
</svg>